<svg xmlns="http://www.w3.org/2000/svg" version="1.1" xmlns:xlink="http://www.w3.org/1999/xlink" viewBox="0 0 1422 800" style="overflow: hidden; display: block;" width="1422" height="800"><defs></defs><g id="two-0" transform="matrix(1 0 0 1 0 0)" opacity="1"></g><path d="M 738.8620344074579 66.82337090111295 Q 738.8620344074579 66.82337090111295 732.5560991580351 66.16223852970519 726.2501639086122 65.50110615829743 716.2875817066313 67.48591440400028 706.3249995046505 69.47072264970312 700.3218249937308 71.58838425091216 694.3186504828113 73.7060458521212 688.3940537437957 76.6263695087035 682.4694570047801 79.54669316528582 677.2467001419307 83.62889572757824 672.0239432790811 87.71109828987066 664.8087243346079 92.96541235254365 657.5935053901347 98.21972641521664 650.7892602715192 104.391075579037 643.9850151529037 110.56242474285736 636.5075007531178 118.42044973946315 629.029986353332 126.27847473606894 624.2517962353038 132.60375056548475 619.4736061172756 138.92902639490052 615.9487064712614 146.122448010762 612.4238068252471 153.31586962662348 610.7728720216871 159.941245619759 609.1219372181273 166.56662161289452 610.4850133766569 177.45162631453135 611.8480895351864 188.33663101616818 619.168105986118 196.35159697162908 626.4881224370495 204.36656292708997 634.6254752480643 207.80351381978414 642.7628280590792 211.24046471247834 654.190828006669 214.39330955508473 665.6188279542588 217.5461543976911 676.5555187161222 219.68925401109072 687.4922094779854 221.8323536244903 700.9830502543273 225.28172845578035 714.4738910306693 228.73110328707043 725.6862996427492 232.4617644714914 736.8987082548292 236.19242565591236 745.6753722792946 240.8412048244864 754.4520363037599 245.48998399306046 760.922500962835 250.66669502179613 767.3929656219101 255.8434060505318 772.4385630970339 261.794227939911 777.4841605721577 267.7450498292902 780.2324353604939 274.3650072893478 782.9807101488301 280.9849647494054 783.032633115127 288.81826902835735 783.0845560814241 296.6515733073093 779.1752613252825 305.79170374724123 775.2659665691408 314.93183418717314 770.0394395713977 322.81574877231617 764.8129125736544 330.69966335745926 755.0965198475992 340.06492894354517 745.3801271215441 349.430194529631 733.7910701136192 359.83866019126185 722.2020131056943 370.2471258528927 707.0130739832308 382.51354320932205 691.8241348607673 394.7799605657514 674.2201066043369 409.16946934535133 656.6160783479064 423.55897812495124 638.3142948214484 438.92185576514964 620.0125112949904 454.2847334053481 603.0208473868086 470.34986754693625 586.0291834786267 486.41500168852446 575.7575318175531 496.24172990488967 565.4858801564794 506.0684581212548 564.6003561888697 506.68241202973513 563.7148322212599 507.29636593821544 562.6796231090525 507.59542143967326 561.644413996845 507.8944769411311 560.5679064073565 507.84732284562074 559.4913988178681 507.80016875011034 558.4863033798886 507.4117421038793 557.481207941909 507.0233154576482 556.6527584131143 506.33428463309144 555.8243088843195 505.6452538085347 555.2592441490638 504.72776051486983 554.6941794138081 503.810267221205 554.4516618990353 502.76037324847346 554.2091443842626 501.71047927574193 554.3145657377878 500.6381088000338 554.419987091313 499.56573832432565 554.8623096695936 498.58316881752586 555.3046322478742 497.60059931072607 556.0375447602025 496.8107060595697 556.7704572725307 496.02081280841344 557.7172235853957 495.50629784480816 558.6639898982605 494.99178288120294 559.7254833287832 494.806516057657 560.786976759306 494.6212492341111 561.8520586651036 494.7846280359554 562.9171405709012 494.94800683779977 563.8742965952824 495.44292546135347 564.8314526196637 495.93784408490717 565.5804682742112 496.7124844196383 566.3294839287587 497.48712475436946 566.7919370767204 498.4603817527465 567.2543902246821 499.43363875112357 567.3818618993905 500.5036121485016 567.5093335740991 501.57358554587955 567.2884774575632 502.62824884510746 567.0676213410273 503.6829121443353 566.5215611269487 504.6118418195799 565.9755009128701 505.54077149482447 565.1614092498087 506.246708363874 564.3473175867473 506.95264523292354 563.3504300867248 507.3616775192393 562.3535425867025 507.7707098055551 561.2782336341243 507.8400117207858 560.2029246815459 507.9093136360165 559.1617794076008 507.63162925134355 558.1206341336556 507.3539448666706 557.2226607233613 506.7583478104708 556.3246873130669 506.16275075427103 555.6639038195231 505.3116001955509 555.0031203259792 504.46044963683073 554.6487109553899 503.44286126377017 554.2943015848006 502.4252728907096 554.2833730918214 501.3477884745853 554.2724445988424 500.27030405846097 554.6061411995732 499.24573650206935 554.9398378003041 498.22116894567773 555.583221372561 497.3567907426326 556.226604944818 496.4924125395875 556.2258867413939 496.49310698523357 556.2251685379699 496.49380143087967 566.4231032409724 486.5221240857752 576.6210379439749 476.5504467406708 593.7629481093544 460.06129704449495 610.9048582747339 443.57214734831916 629.0729560702587 427.9348492219267 647.2410538657833 412.2975510955342 664.5891037601116 397.58983916341737 681.93715365444 382.88212723130056 696.3751387079348 370.5288651815997 710.8131237614296 358.17560313189887 721.5825263265315 347.48466013227653 732.3519288916334 336.7937171326542 740.1681973909447 328.0812545900103 747.984465890256 319.36879204736636 752.443320113274 312.7772754139447 756.9021743362919 306.18575878052314 760.7488282690204 296.44094574192826 764.595482201749 286.6961327033334 760.2616895946418 277.8239440179475 755.9278969875346 268.9517553325617 751.1421707050209 264.3518447187944 746.3564444225073 259.75193410502715 739.1706547781148 255.42709748046474 731.9848651337222 251.10226085590233 721.4224875971111 247.74873177510787 710.8601100604998 244.3952026943134 697.6690199343604 241.69853410371564 684.477929808221 239.00186551311785 672.9703950837772 237.20634668611495 661.4628603593334 235.41082785911203 648.1413176587649 232.80387483183756 634.8197749581965 230.1969218045631 623.306010933931 225.34273722073385 611.7922469096654 220.4885526369046 606.2925766821693 214.9311459517362 600.7929064546731 209.37373926656784 596.096023891218 201.58573888397984 591.399141327763 193.79773850139182 589.6909753725024 185.46483725072534 587.9828094172417 177.13193600005886 588.7803526285636 169.1848379840577 589.5778958398856 161.23773996805656 592.0800075718932 152.8535598003626 594.5821193039008 144.46937963266865 599.0753240407475 135.6377078088716 603.5685287775945 126.80603598507452 608.8876175268681 119.97806963914486 614.2067062761417 113.15010329321521 621.7185634241893 104.08950236339925 629.2304205722368 95.02890143358329 636.6500471562439 87.69834885991315 644.069673740251 80.367796286243 651.0308376335204 74.89821922241606 657.9920015267896 69.42864215858911 665.0801191776081 64.0621396942307 672.1682368284268 58.695637229872275 679.4264752847148 55.16768341967962 686.6847137410027 51.63972960948697 699.9591896219969 48.05714899064273 713.233665502991 44.4745683717985 720.986744388498 43.73555484484868 728.739823274005 42.99654131789886 735.1049100582735 43.82611767909608 741.4699968425421 44.6556940402933 742.7773594499031 44.97277877809932 744.084722057264 45.28986351590534 745.2782069636436 45.91061587902557 746.4716918700232 46.53136824214581 747.4819336765869 47.4197100740698 748.4921754831506 48.30805190599378 749.2604588886351 49.41235273771153 750.0287422941195 50.51665356942927 750.5104146309002 51.772731384715996 750.9920869676808 53.02880920000272 751.1591534169129 54.36366069721739 751.3262198661448 55.69851219443206 751.1689705179492 57.03455574183883 751.0117211697535 58.370599289245604 750.5392953636357 59.630183973095455 750.0668695575179 60.889768656945314 749.3067247035262 61.99968735623156 748.5465798495346 63.109606055517816 747.5428956022985 64.00535024328863 746.5392113550623 64.90109443105946 745.3503218901889 65.53060341303527 744.1614324253154 66.16011239501105 742.8564360543629 66.48679907958204 741.5514396834104 66.81348576415303 740.2061828567735 66.81836310586263 738.8609260301366 66.82324044757223 738.8614802187973 66.82330567434259 Z" fill="hsl(167, 52%, 78%)"></path></svg>